<?xml version="1.0" standalone="no"?>
<!DOCTYPE svg PUBLIC "-//W3C//DTD SVG 1.1//EN" "http://www.w3.org/Graphics/SVG/1.1/DTD/svg11.dtd" >
<svg xmlns="http://www.w3.org/2000/svg">
<metadata>
Created by FontForge 20120731 at Thu Jan  5 16:03:02 2017
 By admin
</metadata>
<defs>
<font id="iconfont" horiz-adv-x="1024" >
  <font-face 
    font-family="iconfont"
    font-weight="500"
    font-stretch="normal"
    units-per-em="1024"
    panose-1="2 0 6 3 0 0 0 0 0 0"
    ascent="896"
    descent="-128"
    x-height="792"
    bbox="11 -103 1013 877"
    underline-thickness="0"
    underline-position="0"
    unicode-range="U+0078-E6B2"
  />
<missing-glyph 
 />
    <glyph glyph-name=".notdef" 
 />
    <glyph glyph-name=".notdef" 
 />
    <glyph glyph-name=".null" horiz-adv-x="0" 
 />
    <glyph glyph-name="nonmarkingreturn" horiz-adv-x="341" 
 />
    <glyph glyph-name="x" unicode="x" horiz-adv-x="1001" 
d="M281 543q-27 -1 -53 -1h-83q-18 0 -36.5 -6t-32.5 -18.5t-23 -32t-9 -45.5v-76h912v41q0 16 -0.5 30t-0.5 18q0 13 -5 29t-17 29.5t-31.5 22.5t-49.5 9h-133v-97h-438v97zM955 310v-52q0 -23 0.5 -52t0.5 -58t-10.5 -47.5t-26 -30t-33 -16t-31.5 -4.5q-14 -1 -29.5 -0.5
t-29.5 0.5h-32l-45 128h-439l-44 -128h-29h-34q-20 0 -45 1q-25 0 -41 9.5t-25.5 23t-13.5 29.5t-4 30v167h911zM163 247q-12 0 -21 -8.5t-9 -21.5t9 -21.5t21 -8.5q13 0 22 8.5t9 21.5t-9 21.5t-22 8.5zM316 123q-8 -26 -14 -48q-5 -19 -10.5 -37t-7.5 -25t-3 -15t1 -14.5
t9.5 -10.5t21.5 -4h37h67h81h80h64h36q23 0 34 12t2 38q-5 13 -9.5 30.5t-9.5 34.5q-5 19 -11 39h-368zM336 498v228q0 11 2.5 23t10 21.5t20.5 15.5t34 6h188q31 0 51.5 -14.5t20.5 -52.5v-227h-327z" />
    <glyph glyph-name="edit" unicode="&#xe61d;" 
d="M819 8h-614q-28 0 -48 20t-20 49v614q0 28 20 48t48 20h409q10 0 16.5 -6.5t6.5 -16t-6.5 -16t-16.5 -6.5h-386q-19 0 -32.5 -13.5t-13.5 -32.5v-569q0 -19 13.5 -32t32.5 -13h568q19 0 32.5 13t13.5 32v410q0 9 6.5 16t16 7t16 -7t6.5 -16v-432q0 -29 -20 -49t-48 -20v0
zM448 310q-7 -7 -16.5 -7t-16 6.5t-6.5 16t6 16.5l409 411q7 7 16.5 7t16 -7t6.5 -16t-6 -16z" />
    <glyph glyph-name="toparrow" unicode="&#xe65d;" 
d="M966 227l-435 432q-7 7 -17.5 7t-17.5 -7l-442 -432q-7 -7 -7 -17.5t7.5 -17.5t17.5 -7t18 7l425 416l416 -416q7 -7 17.5 -7t18 7t7.5 17.5t-8 17.5z" />
    <glyph glyph-name="bottomarrow" unicode="&#xe65e;" 
d="M966 573q-7 7 -17.5 7t-17.5 -7l-416 -416l-425 416q-8 7 -18 7t-17.5 -7t-7.5 -17.5t7 -17.5l442 -432q7 -8 17.5 -8t17.5 8l435 432q15 20 0 35z" />
    <glyph glyph-name="rightarrow" unicode="&#xe65f;" 
d="M762 406l-432 436q-8 7 -18 7t-17.5 -7.5t-7.5 -17.5t7 -18l416 -416l-416 -425q-7 -7 -7 -17.5t7.5 -18t17.5 -7.5t18 8l432 441q7 7 7 17.5t-7 17.5z" />
    <glyph glyph-name="leftarrow" unicode="&#xe660;" 
d="M730 -35l-416 425l416 416q7 8 7 18t-7.5 17.5t-17.5 7.5t-18 -7l-432 -436q-7 -7 -7 -17.5t7 -17.5l432 -441q8 -8 18 -8t17.5 7.5t7.5 18t-7 17.5z" />
    <glyph glyph-name="address" unicode="&#xe60c;" 
d="M633 491.5q0 -42.5 -30 -72.5t-72.5 -30t-72.5 30t-30 72.5t30 72.5t72.5 30t72.5 -30t30 -72.5zM530.5 288q-84.5 0 -144 59.5t-59.5 144t59.5 144t144 59.5t144 -59.5t59.5 -144t-59.5 -144t-144 -59.5zM530 801q-89 0 -164 -47q-77 -48 -116 -130q-29 -63 -29 -133
q0 -41 10 -80q10 -37 30 -72v0q23 -57 136 -216t133 -159q19 0 129 157t141 219l1 1q39 70 39 150q0 70 -30 133q-25 53 -68 94q-90 83 -212 83z" />
    <glyph glyph-name="process" unicode="&#xe67f;" 
d="M512 840q-94 0 -180.5 -37t-148.5 -99.5t-99 -148.5t-37 -180.5t37 -180.5t99 -148.5t148.5 -99.5t180.5 -37t180.5 37t148.5 99.5t99 148.5t37 180.5t-37 180.5t-99 148.5t-148.5 99.5t-180.5 37zM745 351h-461q-11 0 -17 6.5t-6 17t6 17t17 6.5h461q10 0 16.5 -6.5
t6.5 -17t-6.5 -17t-16.5 -6.5z" />
    <glyph glyph-name="exclamation" unicode="&#xe627;" 
d="M512 864q-98 0 -186.5 -38t-153 -102.5t-102.5 -153t-38 -186.5t38 -186.5t102.5 -153t153 -102.5t186.5 -38t186.5 38t153 102.5t102.5 153t38 186.5t-38 186.5t-102.5 153t-153 102.5t-186.5 38v0zM473 662q11 15 39 15q25 0 36.5 -14t11.5 -43q0 -9 -1 -17l-33 -366
h-33l-30 363q-1 9 -1 18q0 30 11 44v0zM546 109q-14 -14 -35 -14t-36 14.5t-15 35.5t15 36t36 15t35 -15q15 -14 15 -36t-15 -36v0zM546 109z" />
    <glyph glyph-name="checkmark" unicode="&#xe61a;" 
d="M369.5 75q-22.5 0 -38.5 15l-240 240q-16 16 -16 38.5t15.5 38.5t38 16t38.5 -16l202 -202l481 480q16 16 38.5 16t38.5 -16t16 -38.5t-16 -38.5l-519 -518q-16 -15 -38.5 -15z" />
    <glyph glyph-name="points" unicode="&#xe61c;" 
d="M91 381q0 -43 30.5 -73t73.5 -30t73 30t30 73t-30 73.5t-73 30.5t-73.5 -30.5t-30.5 -73.5zM408 381q0 -43 30.5 -73t73 -30t73 30t30.5 73t-30.5 73.5t-73 30.5t-73 -30.5t-30.5 -73.5zM725 381q0 -43 30 -73t73 -30t73 30t30 73t-30 73.5t-73 30.5t-73 -30.5t-30 -73.5
z" />
    <glyph glyph-name="nocheck" unicode="&#xe674;" 
d="M54 384q0 -93 36 -178t97.5 -146.5t146.5 -97.5t178 -36t178 36t146.5 97.5t97.5 146.5t36 178t-36 178t-97.5 146.5t-146.5 97.5t-178 36t-178 -36t-146.5 -97.5t-97.5 -146.5t-36 -178zM927 384q0 -113 -55.5 -208.5t-151 -151t-208.5 -55.5t-208.5 55.5t-151 151
t-55.5 208.5t55.5 208.5t151 151t208.5 55.5t208.5 -55.5t151 -151t55.5 -208.5z" />
    <glyph glyph-name="check" unicode="&#xe6b2;" 
d="M512 829q-91 0 -173.5 -35t-142 -94.5t-94.5 -142t-35 -173.5t35 -173.5t94.5 -142t142 -94.5t173.5 -35t173.5 35t142 94.5t94.5 142t35 173.5t-35 173.5t-94.5 142t-142 94.5t-173.5 35zM768 514l-310 -310q-10 -10 -30 -10h-2h-1v0h-3q-20 0 -30 10l-136 136
q-10 10 -10 25t10 25t24.5 10t25.5 -10l113 -114q3 -2 6.5 -2t5.5 2l287 288q11 10 25.5 10t24.5 -10.5t10 -25t-10 -24.5z" />
    <glyph glyph-name="category" unicode="&#xe600;" 
d="M877 230q59 45 93.5 109t34.5 135q0 124 -88 212t-213 88t-213 -88t-88 -212.5t88 -212.5t213 -88q70 0 122 25l115 -192q6 -12 25 -12q13 0 20 6q9 5 13 20t-1 25zM467 474q0 99 70 167.5t167 68.5q96 0 166.5 -70t70.5 -166q0 -100 -70 -168.5t-167 -68.5
q-100 0 -168.5 69.5t-68.5 167.5zM506 64h-455q-14 0 -23 -9t-9 -23t9 -23t23 -9h455q14 0 23 9t9 23t-9 23t-23 9zM51 384h205q14 0 23 9t9 23t-8 23t-18 9h-211q-14 0 -23 -9t-9 -23q0 -13 10.5 -22.5t21.5 -9.5zM51 704h288q15 0 23.5 9t8.5 23t-7.5 23t-17.5 9h-295
q-14 0 -23 -9t-9 -23q0 -13 10.5 -22.5t21.5 -9.5z" />
    <glyph glyph-name="shopcar" unicode="&#xe601;" 
d="M333 128h486q29 0 54 21t29 49l77 423q5 14 1 31t-14 26q-25 26 -57 26h-531q-15 0 -23.5 -9t-8.5 -23t8.5 -23t23.5 -9h537v-6l-77 -423q0 -5 -7 -12t-12 -7h-486q-6 0 -13.5 5t-12.5 14l-109 557q-4 33 -29.5 51.5t-59.5 18.5h-39q-32 -10 -32 -38q0 -14 9 -23t23 -9
h39q6 0 12.5 -5.5t6.5 -13.5l115 -557q10 -25 36 -44.5t54 -19.5zM262 96q-38 0 -63.5 -25.5t-25.5 -64t25.5 -64t64 -25.5t64 25.5t25.5 63.5t-27.5 64t-62.5 26zM262.5 -13q-9.5 0 -17.5 8t-8 17.5t8 17.5t17.5 8t17.5 -8t8 -17.5t-8 -17.5t-17.5 -8zM870 96
q-38 0 -63.5 -25.5t-25.5 -64t25.5 -64t64 -25.5t64 25.5t25.5 63.5t-27.5 64t-62.5 26zM870.5 -13q-9.5 0 -17.5 8t-8 17.5t8 17.5t17.5 8t17.5 -8t8 -17.5t-8 -17.5t-17.5 -8z" />
    <glyph glyph-name="my" unicode="&#xe602;" 
d="M787 474q19 48 19 108q0 120 -87 207.5t-207 87.5t-207 -87.5t-87 -207.5q0 -60 19 -108q-78 -35 -125.5 -103t-47.5 -153v-141q0 -58 41.5 -99.5t99.5 -41.5h38q15 0 23.5 9t8.5 23t-8.5 23t-23.5 9h-32q-33 0 -55 21.5t-22 55.5v141q0 65 38 119t97 79
q39 -59 103.5 -93.5t139.5 -34.5t139.5 34.5t103.5 93.5q63 -24 102 -78t39 -120v-141q0 -34 -21.5 -55.5t-55.5 -21.5h-25q-15 0 -23.5 -9t-8.5 -23t8.5 -23t23.5 -9h25q58 0 99.5 41.5t41.5 99.5v141q0 83 -49 151.5t-124 104.5zM512 352q-96 0 -163 67t-67 163
q0 92 67.5 158t162.5 66t162.5 -66t67.5 -158q0 -96 -67 -163t-163 -67z" />
    <glyph glyph-name="home" unicode="&#xe603;" 
d="M800 307q-14 0 -23 -8.5t-9 -23.5v-262q0 -5 -4 -9t-9 -4h-153v141q0 19 -17.5 35t-40.5 16h-70q-23 0 -37.5 -15.5t-14.5 -35.5v-141h-153q-5 0 -9 4t-4 9v262q0 15 -9 23.5t-23 8.5t-23 -8.5t-9 -23.5v-262q0 -34 21.5 -55.5t55.5 -21.5h493q30 0 53 22t23 55v262
q-10 32 -38 32zM544 0h-58v128h58v-128zM992 314l-454 460q-26 13 -39 7q-3 0 -6 -3.5t-7 -3.5l-454 -460q-10 -10 -10 -23t10 -22q13 -13 19 -13q19 0 26 6l435 442l435 -435q7 -7 26 -7t25 7q13 25 -6 45z" />
    <glyph glyph-name="optional" unicode="&#xe604;" 
d="M511.5 875q-99.5 0 -190 -39t-156 -104.5t-104 -156t-38.5 -190t38.5 -190t104 -155.5t156 -104t190 -39t190 39t156 104t104 155.5t38.5 190t-38.5 190t-104 156t-156 104.5t-190 39zM511 828q94 0 176 -36t146 -104l-647 -600q-117 124 -117 298q0 89 35.5 171t95 141
t141 94.5t170.5 35.5zM511 -56q-166 0 -293 111l643 601q93 -124 93 -270q0 -89 -35.5 -171t-95 -141.5t-141 -94.5t-171.5 -35v0z" />
    <glyph glyph-name="camera" unicode="&#xe605;" 
d="M512 530q-75 0 -128.5 -53.5t-53.5 -128.5t53.5 -128.5t128.5 -53.5t128.5 53.5t53.5 128.5t-53.5 128.5t-128.5 53.5v0zM512 530zM948 667h-190q-5 16 -12.5 33t-19.5 39.5t-28.5 36.5t-34.5 14h-302q-16 0 -32.5 -14t-29.5 -36.5t-20.5 -39.5t-13.5 -33h-189
q-27 0 -46 -20.5t-19 -48.5v-530q0 -29 19 -49t46 -20h872q27 0 46 20t19 49v530q0 28 -19 48.5t-46 20.5v0zM512 120q-94 0 -161 67t-67 161t67 160.5t161 66.5t160.5 -66.5t66.5 -160.5t-66.5 -161t-160.5 -67v0zM838 530q-16 0 -27 11t-11 27t11 27t27 11t27 -11t11 -27
t-11 -27t-27 -11v0zM838 530zM233 726q0 -11 -7 -18t-18 -7h-114q-10 0 -17 7t-7 18v0q0 10 7 17t17 7h114q11 0 18 -7t7 -17v0v0zM233 726z" />
    <glyph glyph-name="list" unicode="&#xe606;" 
d="M814 832h-605q-60 0 -102.5 -42.5t-42.5 -102.5v-605q0 -60 42.5 -102.5t102.5 -42.5h605q60 0 102.5 42.5t42.5 102.5v605q0 60 -42.5 102.5t-102.5 42.5zM797 3h-570q-41 0 -70 29t-29 70v568q0 41 29 70t70 29h570q41 0 69.5 -29t28.5 -70v-568q0 -41 -28.5 -70
t-69.5 -29zM256 640h64v-64h-64v64zM384 640h384v-64h-384v64zM256 192h64v-64h-64v64zM384 192h384v-64h-384v64zM256 416h64v-64h-64v64zM384 416h384v-64h-384v64z" />
    <glyph glyph-name="delete" unicode="&#xe607;" 
d="M928 704h-160v32q0 40 -28 68t-68 28h-320q-40 0 -68 -28t-28 -68v-32h-160q-13 0 -22.5 -9.5t-9.5 -22.5t9.5 -22.5t22.5 -9.5h832q13 0 22.5 9.5t9.5 22.5t-9.5 22.5t-22.5 9.5zM320 704v32q0 13 9.5 22.5t22.5 9.5h320q13 0 22.5 -9.5t9.5 -22.5v-32h-384zM448 160
v384q0 13 -9.5 22.5t-22.5 9.5t-22.5 -9.5t-9.5 -22.5v-384q0 -13 9.5 -22.5t22.5 -9.5t22.5 9.5t9.5 22.5zM640 160v384q0 13 -9.5 22.5t-22.5 9.5t-22.5 -9.5t-9.5 -22.5v-384q0 -13 9.5 -22.5t22.5 -9.5t22.5 9.5t9.5 22.5zM799.5 576q-13.5 0 -22.5 -9.5t-9 -22.5v-512
q0 -13 -9.5 -22.5t-22.5 -9.5h-448q-13 0 -22.5 9.5t-9.5 22.5v512q0 13 -9 22.5t-22.5 9.5t-23 -9.5t-9.5 -22.5v-512q0 -40 28.5 -68t67.5 -28h448q39 0 67.5 28t28.5 68v512q0 13 -9.5 22.5t-23 9.5z" />
  </font>
</defs>
</svg>
